# xmcd
#
# Track frame offsets:
#	151
#	22353
#	50340
#	70838
#	89583
#	105504
#	134338
#	146621
#	171683
#	198306
#	214883
#	243010
#
# Disc length: 3899 seconds
#
# Revision: 0
# Processed by: cddbd v1.5.1PL0 Copyright (c) Steve Scherf et al.
# Submitted via: audiograbber 1.83.01
#
DISCID=b60f390c
DTITLE=The Urn - The Urn
DYEAR=1998
DGENRE=Blues-Rock
TTITLE0=Make My Day
TTITLE1=Cry Myself To Sleep
TTITLE2=Eyes On The Road
TTITLE3=Near The Urn
TTITLE4=I Thought I Had A Flash
TTITLE5=Drunken Man
TTITLE6=Born Leo
TTITLE7=People Killing People
TTITLE8=Sister Morphine
TTITLE9=Ordinary Blues
TTITLE10=No Not Now
TTITLE11=The Monster
EXTD=[1256]
EXTT0=
EXTT1=
EXTT2=
EXTT3=
EXTT4=
EXTT5=
EXTT6=
EXTT7=
EXTT8=
EXTT9=
EXTT10=
EXTT11=
PLAYORDER=
